	<svg
		width="821"
		height="854"
		viewBox="0 0 821 854"
		fill="none"
		xmlns="http://www.w3.org/2000/svg"
	>
		<path
			fill-rule="evenodd"
			clip-rule="evenodd"
			d="M626.419 474.073C577.971 468.618 513.826 449.143 442.984 420.492C417.571 410.215 388.575 422.458 378.218 447.839C367.862 473.219 380.067 502.126 405.479 512.404C479.222 542.228 553.217 565.647 615.059 572.61C645.898 576.082 677.172 575.893 705.113 567.998C734.187 559.783 761.631 542.45 777.73 511.674C792.124 484.159 795.266 452.463 778.456 423.367C764.161 398.623 739.739 383.889 719.297 374.539C698.42 364.992 673.082 357.376 646.439 350.933C660.952 345.551 674.93 336.727 687.012 322.9C695.248 313.475 703.102 300.722 705.635 284.671C708.289 267.857 704.282 252.645 697.471 240.542C685.738 219.694 665.051 206.922 651.501 199.514C636.003 191.042 617.851 183.478 601.189 176.822C595.652 174.61 590.284 172.499 585.044 170.439C573.495 165.898 562.569 161.602 551.827 157.007C541.059 152.401 532.171 148.185 525.133 144.281C531.643 139.595 540.88 133.782 553.759 126.94C578.004 114.06 587.237 84.0293 574.383 59.8653C561.529 35.7012 531.454 26.5541 507.209 39.4346C477.854 55.0301 453.714 71.5207 437.606 90.2742C420.276 110.451 408.639 138.282 418.276 169.114C424.869 190.205 439.428 205.118 452.43 215.213C433.985 209.825 415.03 205.603 397.582 204.781C380.166 203.959 357.835 206.055 337.588 219.254C315.829 233.438 304.266 255.248 299.732 278.245C293.012 312.323 306.532 340.636 327.105 360.054C345.348 377.273 369.585 388.356 391.847 396.23C432.73 410.69 486.157 420.554 534.421 429.465C539.156 430.339 543.84 431.204 548.459 432.064C604.016 442.4 649.687 451.876 677.726 464.7C681.443 466.399 684.296 467.921 686.463 469.205C684.79 470.276 682.222 471.466 678.236 472.593C667.633 475.589 650.725 476.81 626.419 474.073ZM612.165 257.836C612.169 257.832 612.172 257.828 612.174 257.826C612.171 257.83 612.168 257.833 612.165 257.836V257.836ZM388.126 303.953C388.126 303.953 388.155 303.949 388.209 303.936C388.152 303.946 388.126 303.953 388.126 303.953Z"
			fill="#2a97ff"
			fill-opacity="0.2"
		/>
		<path
			fill-rule="evenodd"
			clip-rule="evenodd"
			d="M213.257 381.024C252.534 409.908 298.428 458.771 345.552 518.927C362.457 540.507 393.696 544.351 415.328 527.513C436.96 510.676 440.793 479.533 423.888 457.954C374.835 395.334 322.368 338.141 272.233 301.272C247.232 282.887 220.028 267.457 191.871 260.37C162.573 252.995 130.141 254.338 100.841 272.989C74.6457 289.663 56.1196 315.573 56.1839 349.175C56.2386 377.752 70.062 402.701 83.121 420.997C96.4578 439.682 114.625 458.917 134.508 477.785C119.244 475.215 102.728 475.895 85.3607 481.857C73.522 485.921 60.3561 493.06 50.1572 505.71C39.4736 518.962 35.3626 534.146 35.2326 548.033C35.0087 571.956 46.5724 593.341 54.6251 606.519C63.8351 621.59 75.7989 637.196 86.9238 651.273C90.6211 655.952 94.222 660.458 97.7368 664.856C105.484 674.551 112.813 683.722 119.834 693.061C126.871 702.422 132.474 710.508 136.629 717.401C128.648 718.218 117.743 718.651 103.169 718.161C75.7301 717.238 52.753 738.666 51.848 766.021C50.943 793.377 72.4526 816.301 99.8912 817.223C133.113 818.341 162.261 816.082 185.574 807.856C210.656 799.006 234.619 780.683 241.637 749.152C246.438 727.582 241.254 707.396 235.016 692.163C248.318 706.03 262.645 719.14 277.359 728.552C292.046 737.947 312.448 747.265 336.58 745.918C362.514 744.471 383.411 731.33 398.808 713.656C421.623 687.467 424.02 656.183 415.868 629.093C408.639 605.072 393.155 583.38 377.783 565.456C349.554 532.537 308.159 497.348 270.765 465.561C267.096 462.442 263.466 459.357 259.891 456.309C216.885 419.65 182.021 388.664 164.109 363.569C161.735 360.242 160.019 357.501 158.781 355.308C160.766 355.213 163.585 355.461 167.602 356.472C178.287 359.162 193.552 366.533 213.257 381.024ZM117.801 575.574C117.796 575.576 117.792 575.578 117.789 575.579C117.794 575.577 117.798 575.576 117.801 575.574V575.574ZM335.001 647.3C335.001 647.3 334.974 647.289 334.921 647.273C334.975 647.293 335.001 647.3 335.001 647.3Z"
			fill="#2a97ff"
			fill-opacity="0.2"
		/>
	</svg>